<?xml version="1.0" standalone="no"?>
<!DOCTYPE svg PUBLIC "-//W3C//DTD SVG 20010904//EN"
 "http://www.w3.org/TR/2001/REC-SVG-20010904/DTD/svg10.dtd">
<svg version="1.0" xmlns="http://www.w3.org/2000/svg"
 width="1207.000000pt" height="1207.000000pt" viewBox="0 0 1207.000000 1207.000000"
 preserveAspectRatio="xMidYMid meet">
<metadata>
Created by potrace 1.11, written by Peter Selinger 2001-2013
</metadata>
<g transform="translate(0.000000,1207.000000) scale(0.100000,-0.100000)"
fill="#000000" stroke="none">
<path d="M7503 10848 c-227 -77 -333 -354 -215 -566 17 -32 311 -333 914 -936
488 -489 888 -891 888 -893 0 -2 -53 -58 -118 -124 l-119 -119 -109 83 c-61
45 -150 108 -199 141 -50 32 -102 67 -117 77 -15 11 -30 19 -34 19 -3 0 -18 8
-32 19 -15 10 -72 42 -127 71 -55 29 -104 55 -110 59 -20 14 -236 111 -332
150 -149 59 -419 147 -478 156 -11 2 -47 10 -80 18 -33 9 -73 18 -90 22 -93
17 -266 45 -300 49 -119 14 -158 18 -240 24 -111 9 -442 7 -550 -2 -128 -12
-251 -25 -285 -31 -8 -1 -35 -6 -60 -9 -42 -7 -221 -41 -265 -51 -11 -2 -63
-16 -115 -30 -52 -14 -102 -27 -111 -29 -54 -13 -99 -30 -99 -38 0 -5 -5 -6
-10 -3 -12 7 -131 -35 -315 -112 -479 -202 -914 -505 -1318 -921 -77 -79 -209
-229 -256 -292 -14 -19 -28 -37 -31 -40 -25 -22 -184 -256 -257 -375 -133
-218 -320 -619 -327 -700 -1 -11 -16 -67 -34 -125 -73 -236 -103 -359 -137
-565 -14 -84 -18 -114 -30 -226 -6 -49 -14 -156 -19 -269 -3 -41 -5 -77 -5
-80 -1 -3 -279 -5 -618 -5 -629 1 -656 0 -744 -38 -68 -28 -159 -143 -175
-219 -10 -48 -4 -145 10 -186 32 -90 109 -170 196 -204 51 -20 75 -21 365 -23
190 -1 318 -5 330 -12 11 -5 37 -18 59 -29 50 -24 118 -91 141 -140 24 -49 25
-54 32 -139 6 -85 -18 -159 -74 -224 -80 -95 -134 -112 -358 -120 -170 -6
-183 -8 -232 -34 -209 -108 -252 -379 -86 -538 50 -48 74 -64 127 -82 20 -7
286 -11 782 -12 413 -1 755 -5 761 -8 5 -3 33 -44 62 -91 l52 -85 -15 -46
c-21 -59 -20 -152 0 -212 46 -135 164 -220 315 -227 l65 -3 150 -149 c153
-153 198 -195 294 -275 73 -61 249 -193 277 -208 13 -6 23 -15 23 -19 0 -4
-442 -7 -982 -7 -541 1 -1005 -3 -1032 -8 -189 -33 -312 -227 -262 -411 29
-107 127 -209 226 -236 25 -7 1037 -9 3086 -8 l3049 3 50 27 c50 26 108 81
137 128 64 106 57 262 -15 364 -12 17 -17 31 -10 33 17 6 254 165 333 224 148
110 268 215 430 377 l165 165 135 2 c147 2 186 8 242 36 191 97 240 345 103
514 l-43 53 17 28 c47 77 191 354 191 368 0 2 13 33 29 68 27 59 102 256 116
306 4 13 1 30 -7 40 -11 15 -10 15 8 -1 21 -17 22 -17 32 20 79 290 114 453
137 628 3 28 8 61 10 75 5 27 13 119 20 215 11 149 5 536 -10 666 -3 30 -8 74
-11 99 -3 25 -6 56 -9 70 -2 14 -7 45 -10 70 -33 235 -151 669 -225 825 -5 11
-25 58 -44 105 -54 136 -178 381 -227 452 -11 14 -19 29 -19 33 0 14 -222 339
-250 365 -3 3 -19 23 -37 46 l-31 41 122 122 122 122 890 -889 c538 -538 907
-899 934 -914 145 -84 336 -64 460 48 97 88 135 183 128 323 -9 166 187 -43
-2134 2279 -1140 1139 -2078 2072 -2085 2072 -7 0 -20 7 -29 15 -25 22 -129
46 -197 44 -34 -1 -88 -11 -120 -21z m2492 -6818 c10 -11 16 -20 13 -20 -3 0
-13 9 -23 20 -10 11 -16 20 -13 20 3 0 13 -9 23 -20z m50 -50 c10 -11 16 -20
13 -20 -3 0 -13 9 -23 20 -10 11 -16 20 -13 20 3 0 13 -9 23 -20z"/>
<path d="M612 6515 c-71 -21 -105 -41 -148 -87 -52 -55 -69 -83 -87 -146 -44
-147 36 -324 177 -390 66 -31 89 -34 347 -34 272 0 316 8 397 71 198 157 163
456 -68 568 l-55 27 -260 2 c-187 1 -272 -2 -303 -11z"/>
<path d="M263 2519 c-93 -17 -188 -91 -233 -184 -21 -42 -25 -65 -25 -140 0
-79 4 -97 28 -147 35 -72 110 -140 185 -168 56 -22 68 -22 598 -22 601 0 612
1 696 65 98 75 144 176 136 297 -9 120 -83 226 -195 278 l-58 26 -545 1 c-300
1 -564 -2 -587 -6z"/>
</g>
</svg>
